<?xml version="1.0" encoding="UTF-8"?>
<svg version="1.1" xmlns="http://www.w3.org/2000/svg" width="33" height="33">
<path d="M0 0 C10.89 0 21.78 0 33 0 C33 10.89 33 21.78 33 33 C22.11 33 11.22 33 0 33 C0 22.11 0 11.22 0 0 Z " fill="#383258" transform="translate(0,0)"/>
<path d="M0 0 C5.94 0 11.88 0 18 0 C18 8.25 18 8.25 15 12 C12.3259797 14.10101595 10.95715315 13.99846976 7.5 13.875 C3.56178661 12.89044665 2.14970643 12.43953029 0 9 C0 6.03 0 3.06 0 0 Z " fill="#E5E5EC" transform="translate(8,15)"/>
<path d="M0 0 C3 3.75 3 3.75 3 6 C5.43929746 4.07423885 7.80090595 2.19909405 10 0 C10 2.97 10 5.94 10 9 C4.06 9 -1.88 9 -8 9 C-8.33 6.36 -8.66 3.72 -9 1 C-8.34 1 -7.68 1 -7 1 C-6.34 1.99 -5.68 2.98 -5 4 C-3.01508358 3.73323796 -3.01508358 3.73323796 -1 3 C-0.67 2.01 -0.34 1.02 0 0 Z " fill="#E6E6ED" transform="translate(16,5)"/>
<path d="M0 0 C2.31 0 4.62 0 7 0 C7 3.96 7 7.92 7 12 C2 9 2 9 0 7 C-0.125 3.375 -0.125 3.375 0 0 Z " fill="#383257" transform="translate(9,16)"/>
<path d="M0 0 C1.42944945 2.35438733 2.08661261 3.48032433 1.625 6.25 C1.41875 6.8275 1.2125 7.405 1 8 C0.01 8 -0.98 8 -2 8 C-2.33 7.67 -2.66 7.34 -3 7 C-5.05396726 7.40929986 -5.05396726 7.40929986 -7 8 C-7.66 5.69 -8.32 3.38 -9 1 C-8.34 1 -7.68 1 -7 1 C-6.34 1.99 -5.68 2.98 -5 4 C-3.01508358 3.73323796 -3.01508358 3.73323796 -1 3 C-0.67 2.01 -0.34 1.02 0 0 Z " fill="#AFAEBE" transform="translate(16,5)"/>
<path d="M0 0 C0.66 0 1.32 0 2 0 C3.32 2.31 4.64 4.62 6 7 C4.68 7 3.36 7 2 7 C1.34 4.69 0.68 2.38 0 0 Z " fill="#9D9BAF" transform="translate(7,6)"/>
</svg>
